<svg version="1.1" viewBox="0 0 2048 1632" width="838" height="668" xmlns="http://www.w3.org/2000/svg">
    <path transform="translate(1054,18)" d="m0 0h8l8 6 9 11 5 11 2 8v16l-4 7-10 6-28 13-34 16-28 13-36 17-33 15-40 19-34 16-26 12-34 16-28 13-35 16-29 14-33 15-38 18-28 13-34 16-24 11-34 16-33 15-29 14-33 15-38 18-26 12-30 14-41 19-7 4 3 10 10 22 14 36 12 36 9 30 10 38 12 57 9 54 6 46 5 50 3 42 3 60 1 30 2-4 10-42 10-60 7-49 6-52 4-44 3-51v-97l-1-20v-15l4-5 42-21 23-11 31-15 85-41 28-13 30-15 28-13 43-21 79-38 52-25 52-25 28-13 17-8 16-8 43-21 28-13 45-22 48-23 33-16 52-25 38-18 33-16 23-11 35-17 25-12 15-7 9-1 6 5 2 12v51l-1 41-3 55-4 47-7 56-10 60-9 44-16 64-10 34-14 44-11 30-12 30-14 32-16 33-8 17h33l21 2 36 6 30 7 40 12 37 13 37 15 30 13 33 15 34 16 19 10 33 17 23 13 25 14 22 13 20 12 26 16 21 13 9 8 1 6-1 12-1 53v46l24 13 23 13 27 15 10 7 3 4v8l-4 5-14 8-24 13-23 13-30 16-22 12-29 16-22 12-24 13-23 13-30 16-18 10-26 14-18 10-29 16-28 15-23 13-30 16-23 13-28 15-23 13-30 16-23 13-30 16-23 13-19 10-23 13-30 16-23 13-21 11-23 13-32 17-18 10-29 16-24 13-23 13-28 15-23 13-15 7-10-2-32-12-50-19-47-18-102-39-39-15-45-17-92-35-213-81-84-32-36-14-8-5-2-6v-910l1-14 7-6 38-17 27-12 41-18 45-20 30-13 86-38 84-37 148-65 36-16 30-13 186-82 107-47zm209 725-17 1-15 3-25 12-146 73-23 11-160 80-23 11-162 81-19 9-160 80-17 8-16 9 4 2 36 9 24 8 24 10 24 11 22 11 23 13 19 11 24 15 17 11 24 16 34 24 19 14 18 14 12 9 28 22 17 14 11 9 26 22 20 18 3 2 5-1 88-47 64-34 34-18 22-12 29-15 22-12 27-14 22-12 31-16 19-10 22-12 26-14 23-12 22-12 23-12 22-12 31-16 22-12 27-14 22-12 27-14 22-12 23-12 22-12 27-14 22-12 25-13 22-12 25-13 20-11v-4l-15-10-32-19-24-14-25-14-23-13-34-18-50-25-28-13-51-22-40-15-36-12-24-7-37-8-21-3-31-2z" fill="#022271"/>
    <path transform="translate(1336,153)" d="m0 0h2v30l-2 39-4 55-6 53-7 49-7 40-8 39-11 46-16 54-13 37-12 29-11 25-14 28-14 24-7 11-16 9-60 30-19 10-54 27-19 10-56 28-19 10-56 28-19 10-62 31-19 10-56 28-19 10-70 35-19 10-66 33-19 10-52 26-19 10-44 22-19 10-24 12h-2l1-6 9-25 19-63 17-70 10-51 7-45 6-51 4-52 1-31v-70l-2-46-2-27v-10l39-19 210-102 23-11 47-23 25-12 45-22 25-12 39-19 35-17 74-36 23-11 45-22 35-17 25-12 45-22 101-49 29-14z" fill="#36B5FD"/>
    <path transform="translate(1357,1014)" d="m0 0h6l33 16 24 12 19 10 26 13 16 9v3l-24 13-28 15-35 18-22 12-22 11-19 10-28 15-35 18-22 12-8 4-7-1-24-13-23-13-32-17-23-13-11-6v-4l27-14 19-10 33-17 19-10 27-14 77-40 19-10 15-8z" fill="#022271"/>
    <path transform="translate(1368,942)" d="m0 0 10 4 28 16 7 5-1 4-15 8-23 11-182 91-19 10-16 8-29 14-6 3-5-1-17-9-22-13-1-3 26-14 48-24 19-10 68-34 15-8 50-25 19-10z" fill="#022271"/>
    <path transform="translate(1484,821)" d="m0 0 13 2 16 5 14 7 7 6v2l-18 10-20 10-19 10-23 12-39 20-19 10-27 14-2 1h-6l-19-11-17-10-2-3 9-6 31-16 19-10 28-15 33-17 22-12 16-8z" fill="#022271"/>
    <path transform="translate(872,1133)" d="m0 0 6 1 14 7 23 13-2 4-8 5-31 16-22 12-34 18-29 15-16 9-6 1-16-9-15-9-8-5 2-4 14-8 68-35 28-15 22-11z" fill="#022372"/>
    <path transform="translate(1413,795)" d="m0 0 12 2 16 5 18 8 7 4v2l-50 26-26 13-19 10-15 8-16 8-9 4-5-1-16-9-18-11v-3l9-6 28-15 34-18 44-24z" fill="#022372"/>
    <path transform="translate(1267,751)" d="m0 0h16l22 3 21 7 3 2-1 3-29 15-47 24-38 19-6-1-29-14-12-6 4-4 68-35 15-8z" fill="#022271"/>
    <path transform="translate(783,1118)" d="m0 0h6l16 10 18 12-1 3-30 15-19 10-62 31-5-1-11-7-19-13-3-2 1-4 15-8 23-11 68-34z" fill="#022271"/>
    <path transform="translate(708,1093)" d="m0 0h6l18 11 19 13v4l-14 8-28 15-47 25-6-1-20-14-15-10-3-4 5-4 34-17 19-10z" fill="#022372"/>
    <path transform="translate(1550,850)" d="m0 0 12 2 13 5 17 9 8 7v2l-26 14-33 17-16 8-5 1-15-8-19-11-10-6 4-4 34-18 29-15z" fill="#022271"/>
    <path transform="translate(1457,897)" d="m0 0 7 1 38 20 5 3-1 3-27 14-46 23-9 1-26-14-16-10 1-3 27-14 35-18z" fill="#022372"/>
    <path transform="translate(1058,1099)" d="m0 0 6 1 21 11 18 10v4l-19 10-27 14-30 15-6-2-26-15-12-7 2-4 17-9 16-8z" fill="#022372"/>
    <path transform="translate(1345,769)" d="m0 0h8l19 5 12 5 12 6 2 3-15 9-26 14-23 13-6 3-5-1-17-9-22-13v-3l26-14z" fill="#022372"/>
    <path transform="translate(844,1208)" d="m0 0 5 1 18 10 18 11v4l-16 9-26 14-16 8-14-7-27-16v-3l18-10 26-14z" fill="#022372"/>
    <path transform="translate(605,1086)" d="m0 0 7 1 24 13 15 9v4l-22 12-25 13-5-1-21-12-13-8-7-5 5-5 20-10 19-10z" fill="#022372"/>
    <path transform="translate(844,1024)" d="m0 0 5 1 17 9 23 13v4l-23 12-20 10-7-1-22-12-17-10v-3l22-12z" fill="#022372"/>
    <path transform="translate(964,963)" d="m0 0 6 1 26 14 14 8-2 4-29 15-14 7-10-4-25-14-9-6 1-3 22-12z" fill="#022372"/>
    <path transform="translate(1145,812)" d="m0 0 8 1 30 14 10 5v4l-21 12-19 11-8-1-41-21v-3l14-8z" fill="#022372"/>
    <path transform="translate(783,996)" d="m0 0 6 1 28 15 10 6 2 3-9 6-27 14-8 4-7-3-20-11-17-10-1-3 29-15z" fill="#022372"/>
    <path transform="translate(663,1057)" d="m0 0 6 1 26 14 14 8 1 3-14 8-23 12-7 1-23-11-22-11v-3l10-6 27-14z" fill="#022372"/>
    <path transform="translate(1205,841)" d="m0 0 6 2 19 10 18 10 2 1-2 4-35 18-6 3-7-1-23-13-14-8-2-3 16-9 23-12z" fill="#022372"/>
    <path transform="translate(844,965)" d="m0 0 9 3 29 16 7 4-1 4-14 8-26 13-6-1-28-16-12-7 1-3 32-17z" fill="#022372"/>
    <path transform="translate(1025,873)" d="m0 0 6 1 17 9 21 12v4l-34 18-8 4-9-3-28-16-8-5 4-4 27-14z" fill="#022372"/>
    <path transform="translate(903,935)" d="m0 0 7 1 39 21v4l-27 14-13 7-7-1-25-14-14-8v-3l10-6 21-11z" fill="#022372"/>
    <path transform="translate(722,1027)" d="m0 0 5 1 23 12 18 10 1 3-28 15-12 6-8-1-25-14-14-8-1-3 23-12 15-8z" fill="#022372"/>
    <path transform="translate(1024,933)" d="m0 0 6 1 19 10 20 11v3l-9 6-32 16-6-1-27-15-13-8 4-4 35-18z" fill="#022473"/>
    <path transform="translate(780,1056)" d="m0 0 6 1 22 12 19 11-5 5-23 12-14 7-6-2-25-14-13-8v-3l10-6 27-14z" fill="#022372"/>
    <path transform="translate(964,904)" d="m0 0 5 1 12 6 18 10 10 6-1 3-16 9-25 13-10-4-35-20 1-3 23-12z" fill="#022372"/>
    <path transform="translate(1085,902)" d="m0 0 10 4 26 14 9 6-4 4-31 16-9 4-16-8-24-14-3-2 1-3 14-8 16-8z" fill="#022372"/>
    <path transform="translate(963,1147)" d="m0 0h6l20 11 19 11v3l-41 22-6-1-18-10-19-11-1-4 22-12 16-8z" fill="#022372"/>
    <path transform="translate(1264,811)" d="m0 0 8 1 22 12 16 9-1 3-16 9-24 12h-6l-24-13-15-9v-3l10-6 27-14z" fill="#022372"/>
    <path transform="translate(903,1178)" d="m0 0 8 1 28 16 9 6-1 3-28 14-11 6h-6l-20-11-20-12v-2l14-8 16-8z" fill="#022372"/>
    <path transform="translate(1121,1007)" d="m0 0h6l16 10 17 11 2 2v3l-23 12-19 9-9-3-22-13-10-6-1-3 27-14z" fill="#022372"/>
    <path transform="translate(1141,873)" d="m0 0h7l28 15 11 7v3l-10 6-29 15-6-1-22-12-16-10-1-3 28-15z" fill="#022372"/>
    <path transform="translate(1304,915)" d="m0 0 7 1 19 12 14 9 2 3-14 8-28 14-5-1-26-15-11-7-1-2 28-15z" fill="#022372"/>
    <path transform="translate(1e3 1068)" d="m0 0 6 1 19 12 14 9v4l-23 12-18 9-5-1-20-11-17-10 2-4 35-18z" fill="#022372"/>
    <path transform="translate(1242,946)" d="m0 0 8 1 25 16 9 7-4 4-38 19-9-3-28-17-5-3 1-3 23-12 16-8z" fill="#022372"/>
    <path transform="translate(1086,843)" d="m0 0 6 2 27 14 10 6 1 3-27 14-14 7-7-1-27-15-12-7 4-4 15-8z" fill="#022372"/>
    <path transform="translate(901,995)" d="m0 0 7 1 26 14 12 7v4l-18 10-20 10-6-1-25-14-13-8-1-3 22-12z" fill="#022372"/>
    <path transform="translate(1060,1038)" d="m0 0 5 1 18 11 16 11 1 3-23 12-16 8-7-2-27-16-7-5 1-3 24-13z" fill="#022372"/>
    <path transform="translate(1181,977)" d="m0 0 7 1 22 14 10 7 2 3-8 5-30 15-6-1-15-8-15-9-7-5v-2l27-14z" fill="#022372"/>
    <path transform="translate(937,1100)" d="m0 0h6l14 8 21 14v3l-8 5-26 13-8 1-10-5-24-14-4-4 9-6z" fill="#022271"/>
    <path transform="translate(1150,932)" d="m0 0h6l20 13 14 9v3l-22 11-15 8h-6l-16-9-18-11-2-3 8-5 27-14z" fill="#022372"/>
    <path transform="translate(1089,963)" d="m0 0 7 1 22 14 10 7v3l-22 12-15 7-6-1-24-14-11-7 5-5 20-10z" fill="#022372"/>
    <path transform="translate(1211,901)" d="m0 0 6 1 18 11 14 9 2 3-5 4-30 15-7 1-16-9-16-10-5-4 8-5 29-15z" fill="#022372"/>
    <path transform="translate(848,1085)" d="m0 0 8 3 22 14 8 6-2 4-32 16-6 1-15-8-21-13v-3l10-6 25-13z" fill="#022372"/>
    <path transform="translate(968,1024)" d="m0 0h6l15 9 20 13-5 5-27 14-5 2-7-1-30-18-3-2v-3l27-14z" fill="#022372"/>
    <path transform="translate(1028,994)" d="m0 0 7 1 18 11 14 9v4l-19 10-16 8-7-1-19-11-14-9v-3l18-10z" fill="#022271"/>
    <path transform="translate(910,1054)" d="m0 0 6 1 24 15 9 7-5 5-31 15-6-1-16-9-18-11v-3l27-14z" fill="#022372"/>
    <path transform="translate(1268,872)" d="m0 0h6l12 7 23 15-2 4-19 10-13 6-8-1-27-16-7-5 5-5z" fill="#022372"/>
</svg>